<?xml version="1.0" encoding="utf-8"?>
<!-- Generator: Adobe Illustrator 16.0.0, SVG Export Plug-In . SVG Version: 6.00 Build 0)  -->
<!DOCTYPE svg PUBLIC "-//W3C//DTD SVG 1.1//EN" "http://www.w3.org/Graphics/SVG/1.1/DTD/svg11.dtd">
<svg version="1.1" id="圖層_1" xmlns="http://www.w3.org/2000/svg" xmlns:xlink="http://www.w3.org/1999/xlink" x="0px" y="0px"
	 width="56px" height="56px" viewBox="0 0 56 56" enable-background="new 0 0 56 56" xml:space="preserve">
<path id="secondary" fill="#F8B72D" d="M55.132,10.019c-0.426-1.033-1.429-1.71-2.547-1.716h-5.536V2.768
	c-0.006-1.117-0.682-2.122-1.716-2.547c-1.031-0.433-2.221-0.203-3.017,0.582l-8.303,8.304c-0.519,0.521-0.807,1.228-0.803,1.964
	v7.168l-6.117,6.088c-1.085,1.077-1.092,2.829-0.016,3.914c0.005,0.005,0.011,0.01,0.016,0.016c1.077,1.085,2.83,1.092,3.915,0.016
	c0.005-0.005,0.01-0.01,0.016-0.016l6.089-6.116h7.168c0.735,0.004,1.443-0.284,1.965-0.803l8.304-8.303
	C55.336,12.24,55.564,11.05,55.132,10.019z"/>
<linearGradient id="primary_1_" gradientUnits="userSpaceOnUse" x1="8.3604" y1="52.3789" x2="63.7129" y2="52.3789" gradientTransform="matrix(1 0 0 -1 -8.3599 80.0547)">
	<stop  offset="0" style="stop-color:#2C767A"/>
	<stop  offset="0.484" style="stop-color:#3F9B9F"/>
	<stop  offset="1" style="stop-color:#73C7C7"/>
</linearGradient>
<path id="primary" fill="url(#primary_1_)" d="M27.677,55.352C12.392,55.352,0,42.961,0,27.677C0,12.391,12.392,0,27.677,0h1.162
	c1.528,0.138,2.656,1.488,2.52,3.016c-0.139,1.53-1.489,2.657-3.018,2.519h-0.664c-12.229,0-22.141,9.913-22.141,22.142
	c0,12.227,9.913,22.14,22.141,22.14c12.228,0,22.14-9.913,22.14-22.14c0.015-0.222,0.015-0.444,0-0.665
	c-0.143-1.522,0.976-2.872,2.497-3.015c0.008-0.001,0.015-0.002,0.022-0.002c1.521-0.143,2.871,0.974,3.015,2.497
	c0.001,0.008,0.001,0.015,0.002,0.022c0,0.388,0,0.775,0,1.163C55.353,42.961,42.962,55.352,27.677,55.352z M43.95,30.997
	c0.305-1.528-0.687-3.015-2.215-3.32c-1.528-0.306-3.015,0.685-3.32,2.214c-1.213,5.992-7.052,9.868-13.044,8.656
	s-9.869-7.052-8.657-13.044c0.889-4.397,4.344-7.824,8.749-8.675c1.529-0.306,2.52-1.792,2.215-3.321
	c-0.306-1.529-1.793-2.52-3.321-2.214C15.37,13.129,9.575,21.902,11.411,30.887c1.836,8.985,10.609,14.78,19.595,12.943
	c6.519-1.332,11.612-6.426,12.944-12.943V30.997z"/>
</svg>
