<?xml version="1.0" encoding="utf-8"?>
<!-- Generator: Adobe Illustrator 16.0.0, SVG Export Plug-In . SVG Version: 6.00 Build 0)  -->
<!DOCTYPE svg PUBLIC "-//W3C//DTD SVG 1.1//EN" "http://www.w3.org/Graphics/SVG/1.1/DTD/svg11.dtd">
<svg version="1.1" id="goal" xmlns="http://www.w3.org/2000/svg" xmlns:xlink="http://www.w3.org/1999/xlink" x="0px" y="0px"
	 width="141.731px" height="141.731px" viewBox="8 2 141.731 141.731" enable-background="new 8 2 141.731 141.731"
	 xml:space="preserve">
<path id="secondary" fill="#F8B72D" d="M149.165,27.653c-1.087-2.646-3.659-4.379-6.52-4.394h-14.174V9.087
	c-0.015-2.861-1.748-5.433-4.394-6.521c-2.64-1.109-5.687-0.522-7.725,1.488l-21.26,21.261c-1.326,1.337-2.065,3.147-2.055,5.031
	v18.354l-15.661,15.59c-2.779,2.757-2.798,7.243-0.041,10.022c0.014,0.013,0.027,0.027,0.041,0.041
	c2.756,2.778,7.243,2.797,10.021,0.041c0.014-0.014,0.027-0.027,0.041-0.041l15.591-15.661h18.354
	c1.884,0.011,3.694-0.729,5.031-2.056l21.261-21.26C149.688,33.34,150.275,30.293,149.165,27.653z"/>
<linearGradient id="primary_1_" gradientUnits="userSpaceOnUse" x1="8.0002" y1="72.8657" x2="149.7317" y2="72.8657">
	<stop  offset="0" style="stop-color:#2C767A"/>
	<stop  offset="0.484" style="stop-color:#3F9B9F"/>
	<stop  offset="1" style="stop-color:#73C7C7"/>
</linearGradient>
<path id="primary" fill="url(#primary_1_)" d="M78.866,143.731C39.728,143.731,8,112.004,8,72.866C8,33.728,39.728,2,78.866,2h2.977
	c3.913,0.353,6.801,3.811,6.448,7.724c-0.353,3.915-3.811,6.803-7.725,6.449h-1.7c-31.311,0-56.693,25.383-56.693,56.693
	c0,31.31,25.383,56.692,56.693,56.692c31.31,0,56.692-25.383,56.692-56.692c0.034-0.566,0.034-1.135,0-1.701
	c-0.366-3.896,2.494-7.353,6.392-7.72c0.02-0.001,0.038-0.003,0.058-0.005c3.896-0.366,7.352,2.495,7.719,6.392
	c0.002,0.02,0.004,0.039,0.005,0.058c0,0.992,0,1.984,0,2.977C149.732,112.004,118.004,143.731,78.866,143.731z M120.534,81.37
	c0.783-3.914-1.755-7.722-5.669-8.504c-3.913-0.783-7.721,1.755-8.504,5.669c-3.103,15.345-18.057,25.269-33.401,22.166
	S47.692,82.645,50.794,67.3c2.276-11.26,11.124-20.032,22.402-22.213c3.914-0.783,6.452-4.591,5.67-8.504
	c-0.783-3.914-4.591-6.452-8.504-5.669c-23.008,4.702-37.847,27.165-33.144,50.172c4.702,23.008,27.165,37.846,50.173,33.144
	c16.689-3.411,29.732-16.454,33.143-33.144V81.37z"/>
</svg>
